<svg xmlns="http://www.w3.org/2000/svg" viewBox="0 0 351.19 272.9"><defs><style>.cls-1{isolation:isolate;}.cls-2{fill:#eae6ff;}.cls-3{fill:#cdccff;}.cls-4{fill:#d7d7ff;}.cls-5{fill:#bdc6f9;}.cls-6{fill:#8784ef;}.cls-7{fill:#9aa3f4;}.cls-40,.cls-47,.cls-8{fill:none;}.cls-8{stroke:#9aa3f4;stroke-width:1.5px;}.cls-47,.cls-8{stroke-miterlimit:10;}.cls-9{fill:#4a41a3;}.cls-10,.cls-26{fill:#5851bc;}.cls-11,.cls-24{fill:#c4c3fc;}.cls-12,.cls-26,.cls-27{opacity:0.35;}.cls-13,.cls-50{fill:#fff;}.cls-14,.cls-44{opacity:0.25;}.cls-14,.cls-17,.cls-19,.cls-24,.cls-26,.cls-27,.cls-44{mix-blend-mode:multiply;}.cls-15{fill:#fca70c;}.cls-16{fill:#b1affd;}.cls-17{opacity:0.15;}.cls-18{opacity:0.26;}.cls-19{opacity:0.62;}.cls-20{fill:#d5dbda;}.cls-21{fill:#efefef;}.cls-22{fill:#7a7ae5;}.cls-23{fill:#cfcfff;}.cls-24{opacity:0.55;}.cls-25{fill:#a4a4f7;}.cls-28{fill:#a2a7f4;}.cls-29{fill:#9090f4;}.cls-30,.cls-47,.cls-50{opacity:0.45;}.cls-31{fill:#e2deff;}.cls-32{fill:#f9c110;}.cls-33{fill:#5045af;}.cls-34{fill:#ffb9b0;}.cls-35{fill:#7762ef;}.cls-36{fill:#5146af;}.cls-37{fill:#8484ef;}.cls-38{fill:#c4c4f7;}.cls-39{fill:#bbbbf2;}.cls-40{stroke:#c4c4f7;stroke-linecap:round;stroke-linejoin:round;stroke-width:0.75px;}.cls-41{fill:#ed9c80;}.cls-42{fill:#38287c;}.cls-43{fill:#453087;}.cls-44,.cls-46{fill:#ce4a30;}.cls-45{fill:#7a74d1;}.cls-47{stroke:#a4a4f7;}.cls-48{fill:#483a99;}.cls-49{fill:#d5d2ff;}.cls-51{fill:#a9adff;}.cls-52{fill:#f2a181;}.cls-53{fill:#5e5dbb;}.cls-54{fill:#b4b4db;}.cls-55{fill:#6960c4;}.cls-56{fill:#170d54;}.cls-57{fill:#ffbe9d;}.cls-58{fill:#3b2e7a;}.cls-59{fill:#e9e6ff;}.cls-60{fill:#e0d9ff;}.cls-61{opacity:0.3;}.cls-62{fill:#3939d3;}.cls-63{fill:#fefefe;}</style></defs><g class="cls-1"><g id="OBJECTS"><path class="cls-2" d="M344.15,162.46c-5.92-16.53-15.26-21.56-24.14-32.17-10.85-12.95-18.16-22.36-15.35-39,4.6-27.22,6.57-95.1-65.48-86.22-25.83,3.18-46.24,23-61.09,42.72C165.46,64.58,142.73,66.07,124.44,70,102,74.8,79.07,82.08,58.28,92.73c-42.83,22-55.62,53.51-53.87,93.88.52,12.2,2.25,31.41,22.85,53.9,27.82,30.34,68.23,34.4,116.87,20.47,11.13-3.19,21.66-8.2,32.61-12a153.68,153.68,0,0,1,35.19-7.64c27.94-2.7,56.9,2.18,83.7-6.16A88.26,88.26,0,0,0,333.06,212C345.86,198.6,350.41,179.9,344.15,162.46Z"/><path class="cls-3" d="M27.26,224.73c0,4,50.6,7.23,113,7.23s113-3.24,113-7.23-50.6-7.22-113-7.22S27.26,220.74,27.26,224.73Z"/><path class="cls-3" d="M96.23,233.65c0,2.5-12.85,4.52-28.69,4.52s-28.69-2-28.69-4.52,12.84-4.52,28.69-4.52S96.23,231.15,96.23,233.65Z"/><ellipse class="cls-3" cx="287.09" cy="234.59" rx="48.14" ry="3.58"/><polygon class="cls-4" points="38.55 175.13 36.7 201.02 61.4 201.02 59.7 175.08 38.55 175.13"/><path class="cls-2" d="M43.45,177.4h0a.79.79,0,0,1,.84-.71h0a.73.73,0,1,1,0,1.43h0A.79.79,0,0,1,43.45,177.4Zm.84-.44a.46.46,0,1,0,0,.89h0c.31,0,.57-.21.57-.45a.52.52,0,0,0-.57-.44Zm-.71.44Z"/><path class="cls-2" d="M51.87,177.38h0a.68.68,0,0,1,.19-.46.94.94,0,0,1,.65-.25h0a.79.79,0,0,1,.85.71.66.66,0,0,1-.26.52.89.89,0,0,1-.58.2h0A.79.79,0,0,1,51.87,177.38Zm.84-.44a.63.63,0,0,0-.45.17.38.38,0,0,0-.12.27h0a.52.52,0,0,0,.57.45h0a.72.72,0,0,0,.41-.14.43.43,0,0,0,.16-.31.53.53,0,0,0-.58-.44Z"/><path class="cls-2" d="M48.25,182.61h.24A4.51,4.51,0,0,0,52,181.12a5.21,5.21,0,0,0,1-3.78.27.27,0,0,0-.3-.23.28.28,0,0,0-.24.31,4.76,4.76,0,0,1-.86,3.36,4.07,4.07,0,0,1-3.11,1.28,3.68,3.68,0,0,1-3-1.05,5,5,0,0,1-.9-3.57.28.28,0,0,0-.24-.31.28.28,0,0,0-.31.23,5.5,5.5,0,0,0,1,4A4.09,4.09,0,0,0,48.25,182.61Z"/><polygon class="cls-5" points="50.16 182.38 47.21 201.63 74.02 201.57 71.31 182.34 50.16 182.38"/><path class="cls-6" d="M40.23,214.88a5.44,5.44,0,1,0,5.44,5.44A5.44,5.44,0,0,0,40.23,214.88Zm0,8a2.53,2.53,0,1,1,2.54-2.53A2.52,2.52,0,0,1,40.23,222.85Z"/><path class="cls-7" d="M39.34,214.88a5.44,5.44,0,1,0,5.44,5.44A5.45,5.45,0,0,0,39.34,214.88Zm0,8a2.53,2.53,0,1,1,2.53-2.53A2.53,2.53,0,0,1,39.34,222.85Z"/><path class="cls-6" d="M71,214.88a5.44,5.44,0,1,0,5.44,5.44A5.45,5.45,0,0,0,71,214.88Zm0,8a2.53,2.53,0,1,1,2.53-2.53A2.53,2.53,0,0,1,71,222.85Z"/><path class="cls-7" d="M70.06,214.88a5.44,5.44,0,1,0,5.44,5.44A5.44,5.44,0,0,0,70.06,214.88Zm0,8a2.53,2.53,0,1,1,2.54-2.53A2.52,2.52,0,0,1,70.06,222.85Z"/><path class="cls-8" d="M112,153.84H95.66a5,5,0,0,0-4.22,2.35l-9.88,15.86"/><path class="cls-8" d="M37.66,201.19H74.17a4,4,0,0,0,3.91-3.33l3.78-23.57A4,4,0,0,0,78,169.7H33.88A4,4,0,0,0,30,174.29l3.78,23.57A4,4,0,0,0,37.66,201.19Z"/><line class="cls-8" x1="55.92" y1="169.7" x2="55.92" y2="201.19"/><line class="cls-8" x1="80.07" y1="185.45" x2="31.76" y2="185.45"/><line class="cls-8" x1="70.34" y1="169.7" x2="67.21" y2="201.19"/><line class="cls-8" x1="42.22" y1="169.7" x2="45.1" y2="201.19"/><path class="cls-8" d="M77.22,199.76l5.92,8.8a3.61,3.61,0,0,1-3,5.61H31.76"/><rect class="cls-9" x="154.28" y="203.94" width="50.09" height="13.47"/><rect class="cls-10" x="92.77" y="83.42" width="173.64" height="124.92" rx="9.39"/><rect class="cls-11" x="97.62" y="87.97" width="163.41" height="108.38" rx="5.77"/><path class="cls-10" d="M140.08,216.24h78.5a7.32,7.32,0,0,1,7.32,7.32v1.17a0,0,0,0,1,0,0H132.75a0,0,0,0,1,0,0v-1.17a7.32,7.32,0,0,1,7.32-7.32Z"/><g class="cls-12"><rect class="cls-13" x="136.65" y="95.46" width="114.34" height="76.85" rx="5.01"/></g><g class="cls-14"><rect class="cls-15" x="147.51" y="151.6" width="4.98" height="12.5"/><rect class="cls-16" x="158.74" y="140.62" width="4.98" height="23.48"/><rect class="cls-15" x="169.96" y="143.05" width="4.98" height="21.05"/><rect class="cls-16" x="181.18" y="131.16" width="4.98" height="32.94"/><g class="cls-17"><rect class="cls-18" x="158.74" y="140.62" width="2.29" height="23.48"/></g><g class="cls-17"><rect class="cls-18" x="147.51" y="151.6" width="2.29" height="12.5"/></g><g class="cls-19"><rect class="cls-18" x="181.18" y="131.16" width="2.29" height="32.94"/></g><g class="cls-17"><rect class="cls-18" x="169.96" y="143.05" width="2.29" height="21.05"/></g><polygon class="cls-20" points="188.8 167.54 144.22 167.54 144.22 120.08 144.9 120.08 144.9 166.86 188.8 166.86 188.8 167.54"/><polygon class="cls-20" points="148.8 145.74 148.35 145.24 160.01 134.77 170.81 137.11 182.5 124.09 183.01 124.55 171.05 137.86 160.2 135.5 148.8 145.74"/><polygon class="cls-20" points="183.93 126.47 180.63 123.31 184.88 122.17 183.93 126.47"/><rect class="cls-16" x="193.02" y="150.71" width="3.42" height="3.42"/><rect class="cls-15" x="193.02" y="156.7" width="3.42" height="3.42"/><rect class="cls-21" x="197.38" y="158.18" width="10.84" height="1.94"/><rect class="cls-21" x="197.38" y="152.19" width="10.84" height="1.94"/><rect class="cls-16" x="213.13" y="150.71" width="3.42" height="3.42"/><rect class="cls-15" x="213.13" y="156.7" width="3.42" height="3.42"/><rect class="cls-21" x="217.5" y="158.18" width="10.84" height="1.94"/><rect class="cls-21" x="217.5" y="152.19" width="10.84" height="1.94"/><rect class="cls-16" x="231.25" y="150.71" width="3.42" height="3.42"/><rect class="cls-15" x="231.25" y="156.7" width="3.42" height="3.42"/><rect class="cls-21" x="235.61" y="158.18" width="7.13" height="1.94"/><rect class="cls-21" x="235.61" y="152.19" width="7.13" height="1.94"/><rect class="cls-21" x="193.66" y="118.03" width="49.08" height="0.89"/><rect class="cls-21" x="144.22" y="107.08" width="98.52" height="2.04"/><rect class="cls-21" x="193.51" y="120.81" width="49.23" height="0.89"/><rect class="cls-21" x="193.51" y="115.26" width="49.23" height="0.89"/><rect class="cls-21" x="193.51" y="123.58" width="49.23" height="0.89"/><rect class="cls-21" x="193.51" y="126.36" width="49.23" height="0.89"/><rect class="cls-21" x="193.51" y="129.13" width="49.23" height="0.89"/><rect class="cls-21" x="193.51" y="131.91" width="49.23" height="0.89"/><rect class="cls-21" x="193.51" y="134.68" width="49.23" height="0.89"/><rect class="cls-21" x="193.51" y="137.46" width="49.23" height="0.89"/><rect class="cls-21" x="199.54" y="140.23" width="43.2" height="0.89"/><path class="cls-22" d="M246,95.46H141.66a5,5,0,0,0-5,5v4.38H251v-4.38A5,5,0,0,0,246,95.46Z"/><path class="cls-23" d="M236.28,100.33a1.45,1.45,0,1,1-1.45-1.45A1.45,1.45,0,0,1,236.28,100.33Z"/><circle class="cls-23" cx="240.72" cy="100.33" r="1.44"/><circle class="cls-23" cx="246.61" cy="100.33" r="1.44"/></g><rect class="cls-24" x="106.27" y="112.46" width="114.34" height="76.85" rx="5.01"/><rect class="cls-13" x="108.59" y="109.46" width="114.34" height="76.85" rx="5.01"/><rect class="cls-15" x="119.46" y="165.6" width="4.98" height="12.5"/><rect class="cls-16" x="130.68" y="154.63" width="4.98" height="23.48"/><rect class="cls-15" x="141.91" y="157.06" width="4.98" height="21.05"/><rect class="cls-16" x="153.13" y="145.17" width="4.98" height="32.94"/><g class="cls-17"><rect class="cls-18" x="130.68" y="154.63" width="2.29" height="23.48"/></g><g class="cls-17"><rect class="cls-18" x="119.46" y="165.6" width="2.29" height="12.5"/></g><g class="cls-19"><rect class="cls-18" x="153.13" y="145.17" width="2.29" height="32.94"/></g><g class="cls-17"><rect class="cls-18" x="141.91" y="157.06" width="2.29" height="21.05"/></g><polygon class="cls-20" points="160.75 181.55 116.17 181.55 116.17 138.33 116.85 138.33 116.85 180.87 160.75 180.87 160.75 181.55"/><polygon class="cls-20" points="120.75 159.75 120.3 159.24 131.96 148.77 142.76 151.12 154.45 138.1 154.96 138.55 143 151.87 132.15 149.51 120.75 159.75"/><polygon class="cls-20" points="155.87 140.48 152.57 137.32 156.83 136.18 155.87 140.48"/><rect class="cls-16" x="164.97" y="164.72" width="3.42" height="3.42"/><rect class="cls-15" x="164.97" y="170.71" width="3.42" height="3.42"/><rect class="cls-21" x="169.33" y="172.19" width="10.84" height="1.94"/><rect class="cls-21" x="169.33" y="166.19" width="10.84" height="1.94"/><rect class="cls-16" x="185.08" y="164.72" width="3.42" height="3.42"/><rect class="cls-15" x="185.08" y="170.71" width="3.42" height="3.42"/><rect class="cls-21" x="189.44" y="172.19" width="10.84" height="1.94"/><rect class="cls-21" x="189.44" y="166.19" width="10.84" height="1.94"/><rect class="cls-16" x="203.19" y="164.72" width="3.42" height="3.42"/><rect class="cls-15" x="203.19" y="170.71" width="3.42" height="3.42"/><rect class="cls-21" x="207.56" y="172.19" width="7.13" height="1.94"/><rect class="cls-21" x="207.56" y="166.19" width="7.13" height="1.94"/><rect class="cls-21" x="165.61" y="132.04" width="49.08" height="0.89"/><rect class="cls-21" x="116.17" y="121.09" width="98.52" height="2.04"/><rect class="cls-21" x="165.46" y="134.81" width="49.23" height="0.89"/><rect class="cls-21" x="165.46" y="129.26" width="49.23" height="0.89"/><rect class="cls-21" x="165.46" y="137.59" width="49.23" height="0.89"/><rect class="cls-21" x="165.46" y="140.36" width="49.23" height="0.89"/><rect class="cls-21" x="165.46" y="143.14" width="49.23" height="0.89"/><rect class="cls-21" x="165.46" y="145.91" width="49.23" height="0.89"/><rect class="cls-21" x="165.46" y="148.69" width="49.23" height="0.89"/><rect class="cls-21" x="165.46" y="151.47" width="49.23" height="0.89"/><rect class="cls-21" x="171.49" y="154.24" width="43.2" height="0.89"/><path class="cls-25" d="M217.92,109.46H113.6a5,5,0,0,0-5,5v4.39H222.93v-4.39A5,5,0,0,0,217.92,109.46Z"/><path class="cls-23" d="M208.23,114.33a1.45,1.45,0,1,1-2.89,0,1.45,1.45,0,0,1,2.89,0Z"/><path class="cls-23" d="M214.11,114.33a1.45,1.45,0,1,1-1.44-1.44A1.44,1.44,0,0,1,214.11,114.33Z"/><path class="cls-23" d="M220,114.33a1.45,1.45,0,1,1-1.44-1.44A1.45,1.45,0,0,1,220,114.33Z"/><path class="cls-26" d="M256.51,83.5H229.74q.27,13,.44,26.05a10.18,10.18,0,0,1-.49,3.93h0c-.35,0-.19.09-.32.72v0a8,8,0,0,1-5.26,3.19.47.47,0,0,0,0,.29.66.66,0,0,0-.21.81c.12.29,1.66.68,3.75.46a10.25,10.25,0,0,0,2.32-.65,3.6,3.6,0,0,0,.86-.58,3,3,0,0,0,.78-.19l.08.08,2.4-1s-.26-1.51-.47-2.3a1.42,1.42,0,0,0-.16-.37,108.82,108.82,0,0,0,4.7-16.71c-.43,7-3,21.38-3.15,21.87a3.67,3.67,0,0,1-3,2.14c-.57,0-3.36-.11-3.05,1.17.07.31,1.52,1,3.61,1.1a10.18,10.18,0,0,0,2.4-.23,4.53,4.53,0,0,0,1.49-.81l.32.43,2.54-.61s0-.67,0-1.46a3.17,3.17,0,0,0-.54-1.55l0-1.44,1.4-.17s2.83-9.15,4.17-12.26a26.46,26.46,0,0,0,1.52-3.9,27.35,27.35,0,0,0,.59-4.87,43.29,43.29,0,0,1,1.63-8.81,1.5,1.5,0,0,1,.24-.51,1.37,1.37,0,0,1,.93-.32c3.6-.33,5.25.28,7.5-.42,3-.92,3.28-2.27,3.43-2.33A9.4,9.4,0,0,0,256.51,83.5Z"/><g class="cls-27"><path class="cls-10" d="M266.41,143.44V112.38c-4.63,6.07-9.21,11.5-13.85,17.56-2,2.63-9.87,11.34-4.51,14.84,1.37.89,3.76.85,4.95.93,4.28.31,8.53-.88,12.69-2.06Z"/></g><path class="cls-26" d="M266.41,150.11l-2.58.2-.05-.14-2,.15-.61-1.71a2.57,2.57,0,0,0-2.53-1.6,1.38,1.38,0,0,0-1.28,1.92c.11.29.4,1.12.6,1.69l-2.11.16,0,.15-4.34.33c-.69,0-1.71.89-1.49,1.51l0,.1a1,1,0,0,0,0,.16l3.76,10.61-.09,44.7h4.36l8.26-32.11Zm-6.78-.33a1.43,1.43,0,0,1-1.42-.9.76.76,0,0,1,.72-1.07,1.43,1.43,0,0,1,1.41.9A.77.77,0,0,1,259.63,149.78Z"/><path class="cls-26" d="M103.69,131.7a21.62,21.62,0,0,0-2.58,4.33,4.36,4.36,0,0,1-2.41,2.17c-1.91.87-4,1.71-5.93,2.48v5.07c4-2.4,7.62-4.65,7.68-4.67,3.06,1.17,5.62-1.38,6.44-3.21.37-.82-.19-1.16-.21-1.55,0-.2.25-1.39.21-1.55-.24-1.07-3.12-.13-2.88-.64a3.64,3.64,0,0,1,1.2-1.79c1.41-1,2.49-2,2.49-2.43C107.7,129.21,104,131.33,103.69,131.7Z"/><rect class="cls-28" x="258.59" y="157.47" width="67.51" height="78.07" rx="6.95"/><rect class="cls-29" x="264.84" y="165.64" width="57.09" height="16.04" rx="1.77"/><rect class="cls-29" x="264.84" y="187.36" width="14.68" height="10.18" rx="1.77"/><rect class="cls-29" x="286.04" y="187.36" width="14.68" height="10.18" rx="1.77"/><rect class="cls-29" x="307.25" y="187.36" width="14.68" height="10.18" rx="1.77"/><rect class="cls-29" x="264.84" y="203.72" width="14.68" height="10.18" rx="1.77"/><rect class="cls-29" x="286.04" y="203.72" width="14.68" height="10.18" rx="1.77"/><rect class="cls-29" x="264.84" y="220.09" width="14.68" height="10.18" rx="1.77"/><rect class="cls-29" x="286.04" y="220.09" width="14.68" height="10.18" rx="1.77"/><rect class="cls-29" x="307.25" y="203.72" width="14.68" height="26.54" rx="1.77"/><g class="cls-30"><path class="cls-31" d="M263.8,166.37a1.77,1.77,0,0,1,1.77-1.77h53.55a1.77,1.77,0,0,1,1.77,1.77v12.49a1.78,1.78,0,0,1-1.77,1.78H265.57"/><rect class="cls-31" x="263.8" y="186.32" width="14.68" height="10.18" rx="1.77"/><rect class="cls-31" x="285.01" y="186.32" width="14.68" height="10.18" rx="1.77"/><rect class="cls-31" x="306.21" y="186.32" width="14.68" height="10.18" rx="1.77"/><rect class="cls-31" x="263.8" y="202.69" width="14.68" height="10.18" rx="1.77"/><rect class="cls-31" x="285.01" y="202.69" width="14.68" height="10.18" rx="1.77"/><rect class="cls-31" x="263.8" y="219.05" width="14.68" height="10.18" rx="1.77"/><rect class="cls-31" x="285.01" y="219.05" width="14.68" height="10.18" rx="1.77"/></g><rect class="cls-15" x="306.21" y="202.69" width="14.68" height="26.54" rx="1.77"/><path class="cls-32" d="M307.25,228.49v-23a1.78,1.78,0,0,1,1.77-1.78h11.14a1.85,1.85,0,0,1,.62.12,1.78,1.78,0,0,0-1.66-1.15H308a1.78,1.78,0,0,0-1.78,1.77v23a1.76,1.76,0,0,0,1.16,1.65A1.59,1.59,0,0,1,307.25,228.49Z"/><path class="cls-26" d="M258.59,175.88l1.81,4.76H268s-.53,20.57-.56,24.43,3.17,30.47,3.17,30.47H275L274.51,202l6.21-17.21s4.68,23,6.62,26.89,12.35,23.87,12.35,23.87h4l-10.33-44.13L289,176.08l-22.34-10.44-8,.79"/><polygon class="cls-15" points="107.44 192.97 103.91 229.52 138.56 229.53 135.21 192.91 107.44 192.97"/><path class="cls-10" d="M113.48,196.32h0a1.21,1.21,0,0,1,1.3-1.1h0a1.12,1.12,0,1,1,0,2.2h0A1.21,1.21,0,0,1,113.48,196.32Zm1.3-.68a.7.7,0,1,0,0,1.36h0c.49,0,.88-.31.88-.68a.8.8,0,0,0-.88-.68Zm-1.1.68h0Z"/><path class="cls-10" d="M126.4,196.29h0a1,1,0,0,1,.3-.71,1.4,1.4,0,0,1,1-.39h0a1.21,1.21,0,0,1,1.29,1.09,1,1,0,0,1-.39.8,1.4,1.4,0,0,1-.9.31h0A1.21,1.21,0,0,1,126.4,196.29Zm1.29-.68a1,1,0,0,0-.69.27.55.55,0,0,0-.19.41h0a.82.82,0,0,0,.89.68h0a1,1,0,0,0,.64-.22.62.62,0,0,0,.24-.46.81.81,0,0,0-.88-.68Z"/><path class="cls-10" d="M120.85,204.31h.37A7,7,0,0,0,126.6,202a8.07,8.07,0,0,0,1.51-5.8.41.41,0,0,0-.47-.36.43.43,0,0,0-.36.48,7.27,7.27,0,0,1-1.32,5.14,6.17,6.17,0,0,1-4.77,2,5.61,5.61,0,0,1-4.6-1.61c-1.85-2.06-1.4-5.44-1.39-5.47a.42.42,0,1,0-.83-.12c0,.15-.52,3.8,1.59,6.15A6.25,6.25,0,0,0,120.85,204.31Z"/><path class="cls-33" d="M73.36,110.62c1.34,2.32.19,5.48,1.54,7.79.54.92,1.46,1.65,1.72,2.69a2.34,2.34,0,0,1-3.37,2.64,3.71,3.71,0,0,0-.53-.26c-.66-.19-1.27.4-1.85.79a2.79,2.79,0,0,1-2.43.44,3.64,3.64,0,0,1-2-2.44c-1-2.91-.28-6.09.61-9,.45-1.46,1.11-3.09,2.55-3.62"/><path class="cls-34" d="M104.52,135.26c0,.32.51.6.18,1.28-.73,1.51-3,3.61-5.71,2.64-.12,0-15,8.64-16.14,8.64s-8.95-7.38-11.5-16.52c-.61-2.18-.37-4.75,1.67-5.85a4.83,4.83,0,0,1,2.81,2.5c1.69,3.19,6.75,13.76,7.87,14.16,1.4-.93,8.21-3,13.73-5.3A3.76,3.76,0,0,0,99.57,135a17.6,17.6,0,0,1,2.29-3.57c.3-.3,3.56-2,3.56-1.48,0,.33-1,1.21-2.21,2a2.93,2.93,0,0,0-1.06,1.47c-.21.42,2.34-.35,2.55.54C104.74,134.11,104.5,135.09,104.52,135.26Z"/><path class="cls-35" d="M72.42,125.18a6.74,6.74,0,0,1,4.45,3.44,14.2,14.2,0,0,1,.6,1.39c.79,2,1.88,3.84,2.68,5.86a12.05,12.05,0,0,1-3.5,1.68,7.4,7.4,0,0,1-3.26.44,1.69,1.69,0,0,1-.55-.12,1.91,1.91,0,0,1-.57-.49c-.34-.39-.67-.79-1-1.19a3.27,3.27,0,0,1-.66-1.14,3.46,3.46,0,0,1,.15-1.77"/><g class="cls-27"><path class="cls-35" d="M74.37,130.68a.67.67,0,0,0-.26-.21.46.46,0,0,0-.53.23,1.2,1.2,0,0,0-.11.62,8.61,8.61,0,0,0,.38,2.42L73.6,138h0a7.55,7.55,0,0,0,3.05-.45c.46-.17.95-.35,1.45-.55C77.59,134.61,76,132.58,74.37,130.68Z"/></g><path class="cls-34" d="M67.78,121s-.06,2.66.35,2.83a9.77,9.77,0,0,0,1.72.53l0,5.51-7.35-1.1-5.05-2.82s5.25-1.74,5.3-2.26-.29-3.47-.29-3.47"/><path class="cls-34" d="M56.49,200.66v0c-2,9.53-1.05,22.61-1.5,29.79l2.73.35s6.21-30.22,7.34-36a8.69,8.69,0,0,0,.15-1.12c.27-4.36-3.66-4.58-5.87-1a14.14,14.14,0,0,0-1,1.94c-.13.29-.24.57-.36.88h0a28.58,28.58,0,0,0-1,3l0,.11c-.1.31-.17.62-.25.93v.07C56.63,200,56.56,200.33,56.49,200.66Z"/><path class="cls-34" d="M68.26,166.47c-.07.79-.49,4.54-1,9-.43,3.72-.9,7.92-1.27,11.24-.27,2.49-.47,4.47-.56,5.41a11.17,11.17,0,0,1-.22,1.61v0c-.94,4.35-3.95,4.6-5.78,3.59a3.36,3.36,0,0,1-.69-.47,2.32,2.32,0,0,1-.78-1.28h0c-.11-.9-.23-2.12-.34-3.57v-.07c-.22-2.83-.41-6.46-.57-10-.2-4.35-.33-8.55-.36-10.91,0-.14,0-.26,0-.39,0-7.25,6.63-11.9,10.77-9.65l.15.08.15.09c.48.32.63,1.4.64,2.64A26.4,26.4,0,0,1,68.26,166.47Z"/><path class="cls-34" d="M58.12,193.83l-.51-1.9v0a30.41,30.41,0,0,1-.63,6.63l0,.11c-.08.3-.15.62-.25.93v.07a5.93,5.93,0,0,0-.22,1v0c0,.86,1.83-3,2.25-3.86l.08-.17-.49-2Z"/><path class="cls-34" d="M72.47,202.48v0c-.19,10,2.89,21.7,3.71,28.95.1,0,2.51-.32,2.51-.32s.46-30.56.5-36.6a10,10,0,0,0-.06-1.15c-.5-4.4-4.07-3.65-5.45.48a18.35,18.35,0,0,0-.58,2.19c-.06.31-.12.63-.17,1h0a32.06,32.06,0,0,0-.36,3.27v.12c0,.32,0,.65-.06,1v.08Z"/><path class="cls-34" d="M74.55,198.41a2.79,2.79,0,0,1-.7-.3,2,2,0,0,1-.92-1.08h0c-.26-.86-.57-2.06-.92-3.48v-.06c-.68-2.75-1.47-6.32-2.22-9.79-.91-4.28-1.74-8.42-2.17-10.77l-.43-2c-1.28-7.28,4.41-12,8.54-10.64l.16.05c.83.34,1.06,3.26,1.25,5.23s1.59,22.43,1.94,26.13a16.14,16.14,0,0,1,.07,1.66C79,198,76.37,199,74.55,198.41Z"/><path class="cls-34" d="M72.78,195.28,72,193.52v0a34.71,34.71,0,0,1,.56,6.75v.12c0,.31,0,.65-.06,1v.08a6.55,6.55,0,0,0,0,1v0c.14.86,1.15-3.4,1.37-4.39l0-.2-.79-1.86Z"/><path class="cls-36" d="M60.12,152.47s-5.35,6.8-4.8,13.62c.23,2.85.58,5.35.9,8.21.05.41.69,6.41.51,6.42,0,0,11,3.4,21.66-1.06,0-.72.86-14.7-4.9-28A92.57,92.57,0,0,1,60.12,152.47Z"/><path class="cls-35" d="M76.86,136.79c0,1.94-1.07,3.13-2.56,4.77a57.87,57.87,0,0,0-.81,7.51c-.08,1.51.56,2.45,0,2.57-2.13,1.87-9.84,3.38-13.37.83.37-3.14-1-10.05-2-13.56-.15-.54-.28-1-.4-1.35-.88-2.67-2.48-11.23-1.3-11.6.24-.08.6-.17,1-.3,1.84-.56,4.57-1.51,4.57-1.51s1.6,4.73,5.76,5.3c2.28-.93,2.08-3.81,2-5.13.74.21,1.07.41,3.37,1.1.65.93.09,2.87,1.13,5.76C74.61,131.9,76.91,134.42,76.86,136.79Z"/><path class="cls-34" d="M73.09,110.09s.42,5.14-.46,7.84a6.39,6.39,0,0,1-5.55,3.83c-6.14,0-7.24-8.34-7.21-8.75s9.06-3.9,9.06-3.9Z"/><path class="cls-33" d="M84.79,234.34c-2.19.39-4.52-.23-5.48-.06-.79.14-2.83.65-3.59,0s-.64-3.1.24-3.42a3.7,3.7,0,0,0,.57.13,5.75,5.75,0,0,0,2.58-.21,13.64,13.64,0,0,0,3.62,1.37,12.24,12.24,0,0,1,2.41.73C86,233.22,86,234.12,84.79,234.34Z"/><path class="cls-33" d="M61.18,235.3c-2.19-.37-3.57-1.58-4.53-1.75-.79-.14-2.79-.53-3-1.35-.16-.6.44-3.13,1.37-3.13a3.68,3.68,0,0,0,.49.32,6.1,6.1,0,0,0,2.51.67A13.62,13.62,0,0,0,61,232.57a12.47,12.47,0,0,1,2,1.5C63.64,234.7,62.42,235.51,61.18,235.3Z"/><path class="cls-34" d="M29.25,133.12l2-2.4,12.28,11s6-8,7.64-10.47c1.82-2.74,3.45-5.08,6.1-5.54.61.38-.21,10.22-.52,10.45-3.71,2.78-10.92,11.71-13.21,12.18C40.91,148.85,29.25,133.12,29.25,133.12Z"/><path class="cls-35" d="M58.19,125.26s-2.51,0-3.59.92-6.23,9-6.23,9a3.64,3.64,0,0,0,1.36,2.84,7.51,7.51,0,0,0,3.71,1.6s2.58-2.57,4-3.74c.91-.73,1,1.07,1,1.07L63,132.55Z"/><path class="cls-33" d="M56.67,125.35l-.4-.22a3.43,3.43,0,0,1-1.65-1.67,5.53,5.53,0,0,1,0-4,15.27,15.27,0,0,1,1.69-1.93,6,6,0,0,0,1-3.36,22,22,0,0,1,.24-3.54c.42-2,1-3.87,2.52-5.15,2.44-2,7.35-3.26,10-1,.48.42.58.75,1.23.81a4.85,4.85,0,0,1,2.24.66c.88.5,1.94,1.22,1.81,2.37a4.06,4.06,0,0,1-1.66,2.42,2.07,2.07,0,0,1-1,.22c-1,0-1.9-.66-2.92-.55a1.91,1.91,0,0,0-1.28.71c-.37.45-.32,1.09-.75,1.51-.69.68-1.76.62-2.57,1.07a.72.72,0,0,0-.35.29.8.8,0,0,0-.09.43l-.05,1.29c-.4-.18-.45-.75-.78-1a.94.94,0,0,0-1.17.07,2,2,0,0,0-.56,1.12,3.16,3.16,0,0,0,.22,1.54c.27.88,1,1.67,1.63,1.09.44.65,0,1.73-.06,2.46,0,.58,0,1.73.54,2.11s1.29.08,1.32,1a1.74,1.74,0,0,1-1.62,1.57,6.23,6.23,0,0,1-2.43-.42,3.77,3.77,0,0,0-2.43-.12,7.17,7.17,0,0,1-1.36.61A2.11,2.11,0,0,1,56.67,125.35Z"/><path class="cls-34" d="M34.37,133.51s-2.89-2.31-3.09-2.94-.24-1.31-.47-1.93a3.62,3.62,0,0,0-2-2c-.72-.29-.36-.54-1.14-.39-1.17.23-1.72,1.37-2.19,2.27-2,3.82,3.46,4.54,3.66,4.55.4,0,2.43,2.32,2.43,2.32"/><path class="cls-37" d="M25.25,131.67l2,1.32a.55.55,0,0,0,.77-.18l4.34-7.27-2.57-1.45-4.66,6.82A.54.54,0,0,0,25.25,131.67Z"/><path class="cls-38" d="M18.19,116.23l.68.47,2.75-4-.68-.46a2.3,2.3,0,0,0-3.12.8h0A2.28,2.28,0,0,0,18.19,116.23Z"/><polygon class="cls-38" points="15.68 121.12 28.33 123.04 31.22 118.83 24.83 107.78 15.68 121.12"/><polygon class="cls-39" points="16.49 121.29 28.33 123.04 29.48 121.36 19.51 116.88 16.49 121.29"/><path class="cls-38" d="M33.53,126.1h0a1.61,1.61,0,0,0,2.19-.57l.51-.74a1.61,1.61,0,0,0-.26-2.24h0a1.61,1.61,0,0,0-2.19.57l-.51.74A1.6,1.6,0,0,0,33.53,126.1Z"/><path class="cls-39" d="M33.78,123.12l-.51.74a1.5,1.5,0,1,0,2.45,1.67l.51-.74a1.74,1.74,0,0,0,.11-.18,1.58,1.58,0,0,1-2.06.4,1.54,1.54,0,0,1-.37-2.05A1,1,0,0,0,33.78,123.12Z"/><path class="cls-25" d="M15.27,121.53h0a.94.94,0,0,0,1.28-.33l8.68-12.64a.94.94,0,0,0-.16-1.32h0a.94.94,0,0,0-1.28.34l-8.68,12.64A.93.93,0,0,0,15.27,121.53Z"/><path class="cls-37" d="M25.29,107.48,18.07,118a1,1,0,0,1-1.29.34,1,1,0,0,1-.22-.24l-1.45,2.11a.88.88,0,1,0,1.44,1l8.68-12.64A1,1,0,0,0,25.29,107.48Z"/><path class="cls-25" d="M29.45,125.25l.81.56a2.88,2.88,0,0,0,3.91-1l.81-1.19a2.84,2.84,0,0,0-.47-4l-.82-.56a2.87,2.87,0,0,0-3.9,1L29,121.26A2.85,2.85,0,0,0,29.45,125.25Z"/><path class="cls-37" d="M29,121.19,27.8,123a.9.9,0,0,0,.15,1.26l3.81,2.6a.91.91,0,0,0,1.24-.32l1.21-1.78a.9.9,0,0,1-1.23.32l-3.81-2.59A.91.91,0,0,1,29,121.19Z"/><path class="cls-34" d="M25.68,129.84a4,4,0,0,1,.69-3,6.39,6.39,0,0,1,.71-.76,1,1,0,0,1,.43-.29,1.4,1.4,0,0,1,.92.21,1.74,1.74,0,0,1,.76.76,1,1,0,0,1-.56,1.2.27.27,0,0,0-.1.11c0,.07,0,.15.07.23a1.66,1.66,0,0,1,.29,1,.58.58,0,0,1-.67.51c-.15,0-.35-.09-.4,0a.19.19,0,0,0,0,.13,1.09,1.09,0,0,1-.23.83.35.35,0,0,1-.19.12l-.19,0a3.13,3.13,0,0,1-.68-.3"/><path class="cls-34" d="M31.26,130.72a13.47,13.47,0,0,1-.23-1.55,3.52,3.52,0,0,0-1.67-2.9.45.45,0,0,0-.27-.08.3.3,0,0,0-.22.26.75.75,0,0,0,.05.36c.12.37.64,1.06.48,1.43A4.19,4.19,0,0,0,29,130c0,.55.27,1.44.92,1.53"/><line class="cls-40" x1="16.6" y1="101.66" x2="19.14" y2="107.66"/><line class="cls-40" x1="11.28" y1="106.99" x2="16.5" y2="110.9"/><line class="cls-40" x1="7.92" y1="114.26" x2="14.4" y2="114.9"/><path class="cls-34" d="M215.74,51.12s-2.33-1.65-2.41-2.34a15.76,15.76,0,0,0-2.23-4,12.37,12.37,0,0,0-3.83-1.59c-.58-.08-3.93.2-3.51.66s2.58.29,3,.54l.42.25s-.42.56-.25.9-.71.87-.38,1.45-.14.54.16,1.15c.49,1,1.75,1.56,2.09,1.29.25.59,1.2,1.81,2.1,1.72s3.07,2,3.07,2"/><path class="cls-34" d="M251.27,39.42c.08,1.56,0,4.29.41,4.69s1.9.34,1.9.34S248.41,51,248,50.63s-6.58-5.34-5.21-5.6,2.72-.2,2.68-.91-.08-1.42-.11-2.13"/><path class="cls-15" d="M257.16,74.33s-10.08,1.15-12.41,1.19-2.2-1.16-2.2-1.16a92.86,92.86,0,0,0-1-10.62c-.45-1.91-.65-2.61-1-4.42-.87-4-.83-4.8-1.75-9.76l6-4.85a3.19,3.19,0,0,0,3.15,1.89,4.6,4.6,0,0,0,4.43-2.32l8.22,5.45L261.32,63l-1,10.93"/><path class="cls-34" d="M251.38,38a16.81,16.81,0,0,1-.71,2.32,2.64,2.64,0,0,1-2.78,1.92l-3.09.07a3.48,3.48,0,0,1-2.41-.51,3.55,3.55,0,0,1-.79-2.24c-.18-1-.33-2-.44-2.93a43.54,43.54,0,0,1-.27-5.82A3.52,3.52,0,0,1,241,30a.49.49,0,0,1,.13-.29.71.71,0,0,1,.37-.15,31.73,31.73,0,0,1,5.84-.37,6.66,6.66,0,0,1,3.93,1,7.4,7.4,0,0,1,2.09,3.54c.08.21.13.49,0,.62"/><path class="cls-41" d="M228.76,110.31a21.1,21.1,0,0,0,.6,2.69c.27.69,2.52.06,2.66-.39a20.53,20.53,0,0,0-.7-3.7"/><path class="cls-42" d="M232.81,113.18c.19.74.44,2.16.44,2.16l-2.25,1-.37-.35a4.19,4.19,0,0,1-1.25,1,9.51,9.51,0,0,1-2.18.6c-2,.21-3.4-.16-3.52-.43-.49-1.14,2.12-1.44,2.63-1.58a3.45,3.45,0,0,0,2.47-2.47c.12-.6,0-.7.3-.68a.8.8,0,0,1,.57.26,1.39,1.39,0,0,0,1.59.37,1.67,1.67,0,0,0,.8-.66A1,1,0,0,1,232.81,113.18Z"/><path class="cls-43" d="M238.7,84.09a38.16,38.16,0,0,1-11.49.27c.5,1.42,1.72,3.25,2.18,5.26,1.54,6.62,2.07,15.52,2.46,21,0,0-.74,1.41-3.1.34-3.52-8.7-9.67-26.33-9.61-30.16.07-4.86,12.22-6,21.13-7.24"/><path class="cls-42" d="M254.22,74.34c2.8,2-15.52,9.75-15.52,9.75a30,30,0,0,1-6,.57,4.21,4.21,0,0,1-.44-1.13c-.11-.54-.05-1.09-.15-1.63a3.76,3.76,0,0,0-1.83-2.46,8,8,0,0,0-3-1,40.23,40.23,0,0,0-6.81-.12c5.51-4.06,16.78-4.59,22-4.93C243.5,75.08,253.82,74.05,254.22,74.34Z"/><path class="cls-41" d="M234.57,114.94a22.54,22.54,0,0,0,.12,2.76c.15.72,2.47.49,2.69.08a20.13,20.13,0,0,0,0-3.78"/><path class="cls-42" d="M238.06,118.47c.06.76.06,2.2.06,2.2l-2.39.58-.3-.41a4.29,4.29,0,0,1-1.4.77,9.48,9.48,0,0,1-2.25.21c-2-.13-3.33-.74-3.4-1-.28-1.21,2.34-1.06,2.87-1.1a3.47,3.47,0,0,0,2.86-2c.22-.56.09-.69.41-.62a.82.82,0,0,1,.51.36,1.42,1.42,0,0,0,1.51.64,1.67,1.67,0,0,0,.9-.51A1,1,0,0,1,238.06,118.47Z"/><path class="cls-43" d="M260.34,73.93a113,113,0,0,1-12.42.4c-1.59,0-13.58,2.25-14.73,4.28-1.88,3.35,1.24,22.88.95,36.87,0,0,1.43,1.2,4,.07.63-6.87,4.69-23.08,1.89-30.65,6.61.88,12,1.75,17.95-.24a4.8,4.8,0,0,0,3.1-3.28A11.56,11.56,0,0,0,260.34,73.93Z"/><path class="cls-15" d="M244.75,44.71l-1.72.1a13.51,13.51,0,0,0-3.56.68c-1.63.6-2.79,2.12-4.12,3.31s-7.92,7.47-9.15,7.7-12.11-7.21-12.11-7.21l-2.65,2.65s11.79,10.9,15.31,10.92c1.7,0,11.12-5,14.13-6.87Z"/><path class="cls-44" d="M226.77,60.77c-2.42.13-13.53-8.35-14.82-9.34l-.51.51s11.79,10.9,15.31,10.92c1.42,0,8.19-3.43,12.15-5.69l1-.6-.62-3.66S229.35,60.62,226.77,60.77Z"/><path class="cls-25" d="M215.46,76.11h27l-4.84-15.78a2.06,2.06,0,0,0-2-1.46H212a1.35,1.35,0,0,0-1.29,1.74Z"/><path class="cls-45" d="M215.12,76.11h26.59l-4.84-15.78a2.07,2.07,0,0,0-2-1.46H211.24A1.34,1.34,0,0,0,210,60.61l4.63,15.12A.55.55,0,0,0,215.12,76.11Z"/><g class="cls-14"><path class="cls-46" d="M256.63,52.32a106,106,0,0,0-2,15.17C250,69.32,248,72.05,243.42,74.1c0,0-3.65-.6-4,.77-.22.8,4.26,1.43,4.26,1.43,4.28,0,15.56-3.11,16.33-3.32s3-14.55,3.07-22.33a4.84,4.84,0,0,0-.71-3.17,4.21,4.21,0,0,0-1.4-1,19.33,19.33,0,0,0-8.61-2.17"/></g><path class="cls-34" d="M244.05,75a2.69,2.69,0,0,0-2.24-.71,18.15,18.15,0,0,0-1.81.15c-.27,0-.58.1-.61.39s1.32,0,2,.21a36.41,36.41,0,0,1-4.18.11,1.29,1.29,0,0,0-.48,0,.4.4,0,0,0-.27.37.51.51,0,0,0,.19.31,2.83,2.83,0,0,0,1.44.58,11,11,0,0,0,6.34-.56"/><path class="cls-15" d="M256.34,52.2c-.11,6.5-.58,9.47-.45,16-3.26.7-7.77,4.39-12.39,6.45a2.48,2.48,0,0,0,.15,1.69c.36.13,15.57-3.58,16.78-4.69s2.53-13.18,2.62-21a4.84,4.84,0,0,0-.71-3.17,4.21,4.21,0,0,0-1.4-1,19.33,19.33,0,0,0-8.61-2.17"/><path class="cls-47" d="M228.84,67.76c.1,1.39-1.54,2.51-3.65,2.51s-3.91-1.12-4-2.51,1.53-2.5,3.65-2.5S228.74,66.38,228.84,67.76Z"/><ellipse class="cls-25" cx="225.01" cy="67.76" rx="1.39" ry="2.43" transform="translate(148.54 289.97) rotate(-87.77)"/><path class="cls-48" d="M246.63,33.85c0-.24-.59-.29-1.13-.22a8.39,8.39,0,0,0-2.29.48c-.29.23-.28.39-.43.41s-.17-.14-.52-.29a4.54,4.54,0,0,0-1.72,0c-.54.07-1,.19-1,.44a1.38,1.38,0,0,0,.22.74c.11.07.11.06.53,1a1,1,0,0,0,1.31.71c.89-.2.94-1.21,1-1.64s.14-.48.27-.5.23,0,.4.42.3,1.3,1.21,1.35c1.19.07,1.71-.34,1.88-1.11.22-1,.17-1,.26-1.13a5,5,0,0,1,.89.07l0-.31A6.53,6.53,0,0,1,246.63,33.85Zm-4.34,2.09a1,1,0,0,1-.88,1.09c-.55.07-.8-.22-1.1-.92a1.83,1.83,0,0,1-.18-1.27c.1-.17.39-.16,1.07-.2s.91-.06,1,.24A4,4,0,0,1,242.29,35.94Zm3.89-.57c-.11.75-.39,1.11-1.14,1.2-1.06.13-1.27-.29-1.42-.8a3.68,3.68,0,0,1-.2-1c0-.32.25-.36.92-.49s1.57-.28,1.7-.14A1.81,1.81,0,0,1,246.18,35.37Z"/><path class="cls-48" d="M253.84,32.19a11.61,11.61,0,0,0-.29-1.6,5.11,5.11,0,0,0-2.5-3.27,8,8,0,0,0-5.64-.56c-1,.29-1.42.83-1.95.82A6.06,6.06,0,0,1,242,27.1c-4-1.45-3.36,2.5-2.93,3.59.19.48,1.1.83,1.22,1a11,11,0,0,1,.19,1.6.88.88,0,0,0,.5.6s0-1.27,0-1.45a1.65,1.65,0,0,1,.6-1.19,3.84,3.84,0,0,1,1.45-.41,11,11,0,0,1,3,.5c.76.64.95,2.12,1.16,3,.1.4.21.67.37.67.13-1.2.54-1.23,1.26-.82a2.09,2.09,0,0,1,.6,1.62,1.7,1.7,0,0,1-1.2,1.76c-.29.06.57,1.69,1,2.1a2.47,2.47,0,0,0,.42.37,2.05,2.05,0,0,0,.49.18l.58.16a1.43,1.43,0,0,0,.79.06c.42-.12.65-.57.84-1,.32-.65.68-1.29.94-2A11.62,11.62,0,0,0,253.84,32.19Z"/><path class="cls-49" d="M326.59,92h-51.1l6.12-4.53V65.39A3.34,3.34,0,0,1,285,62.05h41.64a3.35,3.35,0,0,1,3.34,3.34V88.68A3.34,3.34,0,0,1,326.59,92Z"/><rect class="cls-50" x="302.13" y="66.36" width="23.35" height="2.23"/><rect class="cls-50" x="302.13" y="69.7" width="23.35" height="2.23"/><rect class="cls-50" x="302.13" y="73.04" width="23.35" height="2.23"/><rect class="cls-50" x="302.13" y="76.29" width="23.35" height="2.23"/><rect class="cls-50" x="302.13" y="80.18" width="16.29" height="2.23"/><rect class="cls-51" x="285.63" y="66.36" width="14.67" height="17.15" rx="3.39"/><rect class="cls-50" x="285.63" y="85.65" width="14.67" height="1.84"/><path class="cls-13" d="M294.41,77.49h-5.32a.66.66,0,0,1-.64-.49l-1-3.78a.66.66,0,0,1,.64-.83h7.38a.66.66,0,0,1,.64.83l-1,3.78A.66.66,0,0,1,294.41,77.49Z"/><path class="cls-13" d="M295.35,78.35h-6.41a.13.13,0,0,1-.13-.14.13.13,0,0,1,.13-.13h6.31l2.23-7.78a.14.14,0,0,1,.13-.1H299a.14.14,0,0,1,.14.14.13.13,0,0,1-.14.13h-1.29l-2.23,7.78A.14.14,0,0,1,295.35,78.35Z"/><path class="cls-13" d="M289.92,79.39a.78.78,0,1,1-.78-.78A.78.78,0,0,1,289.92,79.39Z"/><circle class="cls-13" cx="294.78" cy="79.39" r="0.78"/><path class="cls-49" d="M136.76,61.16h65.11l-7.8-5.77V19.77a4.26,4.26,0,0,0-4.26-4.26H136.76a4.25,4.25,0,0,0-4.25,4.26V56.9A4.25,4.25,0,0,0,136.76,61.16Z"/><g class="cls-30"><rect class="cls-13" x="138.16" y="22.12" width="29.75" height="2.85" transform="translate(306.08 47.09) rotate(180)"/><rect class="cls-13" x="138.16" y="26.37" width="29.75" height="2.85" transform="translate(306.08 55.59) rotate(180)"/><rect class="cls-13" x="138.16" y="30.63" width="29.75" height="2.85" transform="translate(306.08 64.1) rotate(180)"/><rect class="cls-13" x="138.16" y="34.77" width="29.75" height="2.85" transform="translate(306.08 72.39) rotate(180)"/><rect class="cls-13" x="138.16" y="38.91" width="29.75" height="2.85" transform="translate(306.08 80.67) rotate(180)"/><rect class="cls-13" x="138.16" y="46.44" width="29.75" height="2.85" transform="translate(306.08 95.73) rotate(180)"/><rect class="cls-13" x="138.16" y="50.93" width="50.78" height="2.85" transform="translate(327.11 104.7) rotate(180)"/></g><rect class="cls-38" x="170.25" y="22.12" width="18.69" height="21.85" rx="4.31" transform="translate(359.2 66.09) rotate(180)"/><rect class="cls-50" x="170.25" y="46.69" width="18.69" height="2.35" transform="translate(359.2 95.73) rotate(180)"/><path class="cls-13" d="M177.76,36.3h6.78a.85.85,0,0,0,.81-.62l1.31-4.82a.85.85,0,0,0-.82-1.07h-9.39a.85.85,0,0,0-.82,1.07l1.31,4.82A.85.85,0,0,0,177.76,36.3Z"/><path class="cls-13" d="M176.56,37.38h8.17a.17.17,0,0,0,.17-.16.17.17,0,0,0-.17-.17h-8l-2.84-9.91a.18.18,0,0,0-.17-.13h-1.77a.17.17,0,1,0,0,.34h1.65l2.84,9.91A.17.17,0,0,0,176.56,37.38Z"/><path class="cls-13" d="M183.48,38.71a1,1,0,1,0,1-1A1,1,0,0,0,183.48,38.71Z"/><path class="cls-13" d="M176.3,38.71a1,1,0,1,0,1-1A1,1,0,0,0,176.3,38.71Z"/><ellipse class="cls-2" cx="287.34" cy="245.62" rx="28.69" ry="3.02"/><path class="cls-7" d="M271.94,241.33a7.26,7.26,0,0,1-3,2.27c-1.59.71-5,1.05-3.1,1.68a11.36,11.36,0,0,0,5.19.06,23.86,23.86,0,0,1,3.5-.21c1.73,0,1.74-.11,1.51-2.06C275.72,240.38,272.72,239.81,271.94,241.33Z"/><path class="cls-7" d="M303.26,240.36c-.1.54.67,2.18-.7,3.38s-4.5,2.47-2.43,2.52a12,12,0,0,0,5.11-.95c1.05-.52.21-1.34,1.52-1.75,1.71-.54,1.36-1.81.47-2.59C306.08,238.4,303.57,238.61,303.26,240.36Z"/><path class="cls-9" d="M296.67,185.75s4.12-12.12-7.57-22.09c0,0-6.26,2.49-11.28,2.79a27.35,27.35,0,0,1-5.95-.13s-.34,10.77-.35,16.57Z"/><path class="cls-9" d="M270.57,205.87c-.22-5.42,5.65-4.71,7.81-.66,4.48,8.36-1.65,27.63-2.46,36.76a4.6,4.6,0,0,1-3.1.19,2.16,2.16,0,0,1-.9-1C272.05,230,270.81,211.66,270.57,205.87Z"/><path class="cls-9" d="M278.18,206.69c-.67,2.21-8.17,4.53-7.56-3.52.27-3.57,1-23.28,1.12-25.18s.46-4.68,1.38-5c4.59-1.74,12.71,4.27,11.51,11.4C283.82,189.14,279.58,202.1,278.18,206.69Z"/><path class="cls-9" d="M290,209.76c-1.81-5.11,4.07-6,7.41-2.86,7.82,7.37,8.13,24.73,10,33.69a6.71,6.71,0,0,1-3.42,1,1.21,1.21,0,0,1-.93-.47C299.9,230.36,291.92,215.22,290,209.76Z"/><path class="cls-9" d="M297.71,208.09c.21,2.31-6,7.07-8.5-.62-1.09-3.41-5.76-23.56-6.35-25.37s-.42-5.56.3-6.23c3.6-3.33,11.74-.4,13.3,6.67C297.51,187.26,297.29,203.32,297.71,208.09Z"/><path class="cls-52" d="M265.53,119.87c.21-.22.43-.45.62-.69,1.48-1.9,1.69-3.58,3.07-5.77a15.68,15.68,0,0,1,1-1.91,8,8,0,0,1,2.23-1.83c.64-.33.09,1.08.09,1.08s.54-.79,1.07-.73c.2,0,.24,1.22.24,1.43a10.07,10.07,0,0,1-1.12,4.78,2.46,2.46,0,0,0-.38,1.09,2.47,2.47,0,0,0,1.29-.64,1.57,1.57,0,0,1,1.35-.39,2.85,2.85,0,0,1-.26.56,5.91,5.91,0,0,1-2.37,2.81c-.67.31-1.44.37-2.1.72-1.19.63-1.76,2.09-3,2.68"/><rect class="cls-53" x="270.06" y="110.5" width="5.12" height="9.42" rx="0.65" transform="translate(65.57 -96.28) rotate(22.7)"/><rect class="cls-54" x="270.6" y="111.06" width="4.29" height="8.41" transform="translate(65.6 -96.32) rotate(22.7)"/><path class="cls-45" d="M276.35,127.53a28.18,28.18,0,0,0-5.72,1c-4.07,1.22-5.47,3.1-6.88,3.88,2.73-3.47,5.78-10.82,5.78-10.82s-3.67-3-4.1-2.31S249.6,138,250.08,140.92c.2,1.2,2,2.39,3.56,2.34,4.38-.15,9.45-1.74,14.77-3.48,2.34-.77,3.06.88,3.06.88"/><path class="cls-55" d="M263.75,132.38s-1.94,3.92-2.52,4.17,1.41-.81,2.51-1.94a23.36,23.36,0,0,0,2.59-4.09A21.68,21.68,0,0,0,263.75,132.38Z"/><path class="cls-52" d="M269.84,113.43a.9.9,0,0,1,.28.62,4.84,4.84,0,0,1-.08,2.59,3.82,3.82,0,0,1-1,1.33,8.1,8.1,0,0,1-1.59,1.08"/><path class="cls-56" d="M276.44,106.92c-1,.3-1.57,1.63-1.92,2.54a14.25,14.25,0,0,0-.77,3.42,4.63,4.63,0,0,0,.17,2.4,4.8,4.8,0,0,0,.67,1,2.12,2.12,0,0,0,.48.51.77.77,0,0,0,.67.12,1.14,1.14,0,0,0,.54-.84,22.1,22.1,0,0,1,2.47-6.22"/><path class="cls-52" d="M275.3,113.76c0-.68-.74-1.13-1.37-.42a4.41,4.41,0,0,0-.69,2.54c0,1,.74,1.18,1.37,1.32"/><path class="cls-45" d="M268.42,131.08c1.28-1.45,5.31-3.86,10.7-3.69,3.71.12,13.82.73,14.95,3.22.58,1.27,1.2,14.27.36,18.76-.64,3.37-2.27,11.72-2.27,13.74s1.09,2.87.58,3.46c-1.13,1.31-8.87,1.86-12.5,1.86-3.24,0-8.74-.86-9-1.9-.41-1.53.63-1.48.77-3.09s.55-12.07,0-13.79c-1.07-3.09-1.59-8.13-2.44-10.42C268.86,137.5,267.15,132.54,268.42,131.08Z"/><path class="cls-55" d="M291.58,141.6c.39.81,3,5,3,5l.1.51a21.37,21.37,0,0,1-.26,2.25c-.64,3.37-2.27,11.72-2.27,13.74s1,2.84.58,3.46c-.89,1.21-15.48,3.93-14.76.55.06-.3,12.24-9.6,12.31-9.91.56-2.67,1-4.59,1.29-6.53C292.18,146,291.2,140.8,291.58,141.6Z"/><path class="cls-57" d="M276.18,122.74a39.89,39.89,0,0,1-.2,4.4,6.81,6.81,0,0,1-1,.57s.6,3.68,1.52,3.4,7-3.34,7-3.34-.86-.35-.86-.69.82-7,.82-7"/><path class="cls-57" d="M280.41,107.38c-.89.24-3.23-.24-3.87.72a21.67,21.67,0,0,0-1.45,4c-.48,1.28-.8,2.66-1.15,4-.45,1.72-1.2,4.88.48,6.32a2.18,2.18,0,0,0,1.3.66l2.4.46a8,8,0,0,0,3.83.08c1.65-.54,2.55-2.79,3-4.33l2.42-8.78Z"/><path class="cls-58" d="M276,132.76s-.36,16.51-1,26.55l2.43,3.35,1.67-4.2a127.92,127.92,0,0,0-1.58-25.58Z"/><path class="cls-58" d="M275.47,131.31l.06.23a4.82,4.82,0,0,0,.5,1.22h0l1.49.12s1-.53,1.15-1.1-1.67-1.51-1.67-1.51l-.21.09a3.28,3.28,0,0,0-1.3.93Z"/><path class="cls-13" d="M282.73,126.05a6.12,6.12,0,0,1,1.7,1.72c-.76,1.75-2.5,4.86-4.4,6.28a8.6,8.6,0,0,0-3-3.78S282.2,129.35,282.73,126.05Z"/><path class="cls-13" d="M277,130.27a6.45,6.45,0,0,0-3,2.82,14.39,14.39,0,0,1,.4-5.23s1.22-1.56,1.65-1.59A8.14,8.14,0,0,0,277,130.27Z"/><path class="cls-52" d="M277.24,167.12a5.53,5.53,0,0,0-3.57,2c-.08.09-.17.19-.15.31s.19.21.34.24c.86.13,1-.41,1.8-.75.54-.22,1.08-.46,1.61-.69"/><path class="cls-59" d="M271,153.68l6.54,20.95a.75.75,0,0,1-.69,1.05l-13.64,1.2A1.28,1.28,0,0,1,262,176l-7-20.64c-.17-.56.64-1.36,1.19-1.37l13.64-1.19A1.24,1.24,0,0,1,271,153.68Z"/><path class="cls-60" d="M270.53,154.23,277,174.86a.75.75,0,0,1-.69,1l-13.64,1.2a1.25,1.25,0,0,1-1.14-.89l-6.45-20.63a.75.75,0,0,1,.69-1.05l13.64-1.2A1.28,1.28,0,0,1,270.53,154.23Z"/><polygon class="cls-13" points="259.63 153.56 260.11 155.36 266.49 154.8 265.97 153 259.63 153.56"/><path class="cls-13" d="M260.84,151.88l.64,2,3-.28-.64-2a2.06,2.06,0,0,0-2-1.45A1.24,1.24,0,0,0,260.84,151.88Zm.67,0a.7.7,0,0,1,.58-1,1.16,1.16,0,0,1,1.13.82.7.7,0,0,1-.57,1A1.17,1.17,0,0,1,261.51,151.83Z"/><path class="cls-57" d="M282.44,165.66c-1.43.3-5.25,1.44-5.65,1.62a17.16,17.16,0,0,0-2.43,1.8c-1.44,1.44-.7,2.11-1.27,4.07a1.05,1.05,0,0,0,0,.31c0,.2.27.37.55.18.15.26.59.1.81-.17,0,.19.27.31.71.07.23-.13.19-.12.74-.61a5.69,5.69,0,0,1,1.55-.94,12.92,12.92,0,0,0,1.51-.69c.58-.38,1.62-.48,2.13-2.13a1.6,1.6,0,0,1,.79-.79l2.33-1.47"/><path class="cls-45" d="M291.23,138.82c.61,2.16,3.13,17.16,3.13,17.16l-14.22,10.29,1.19,3.11s17-5.71,18.35-9.61S301,138.22,296.23,132a10.8,10.8,0,0,0-4.52-3"/><path class="cls-52" d="M276.65,171.06a11,11,0,0,0-1.1,1.05,6.15,6.15,0,0,1-1,1.13,6.52,6.52,0,0,1,.86-1.28,3,3,0,0,1,.6-.52C276.19,171.3,276.42,171.18,276.65,171.06Z"/><path class="cls-52" d="M275.86,170.12a3.65,3.65,0,0,0-.61.74,6.15,6.15,0,0,0-.48.81,7.29,7.29,0,0,1-1,1.67c.22-.62.52-1.19.79-1.77a3.43,3.43,0,0,1,.57-.82A2.48,2.48,0,0,1,275.86,170.12Z"/><path class="cls-52" d="M275,169.35a6,6,0,0,1-.56.76,2.81,2.81,0,0,0-.41.81l-.68,1.75a4.89,4.89,0,0,1,.46-1.84,2.65,2.65,0,0,1,.52-.82C274.5,169.78,274.76,169.59,275,169.35Z"/><path class="cls-58" d="M285.83,117.7c-.56-.33-1-.67-1.35-.14-.19.29-.31.68-.64.78a.67.67,0,0,1-.75-.53,2,2,0,0,1,.13-1c.22-.72.44-1.44.67-2.16a3.24,3.24,0,0,0,.16-2.16,2.34,2.34,0,0,0-.69-.87,7.08,7.08,0,0,0-3.31-1.42,35.49,35.49,0,0,1-3.58-.74,3.87,3.87,0,0,1-1.36-.68,3,3,0,0,1-1-2.2,4.51,4.51,0,0,1,.7-2.34,4.83,4.83,0,0,0,.35.81,3,3,0,0,1,.66-1c.34,1.93,8.49,1.29,10.39,2.14,1.32.59,2.41,1,2.37,3.12a.86.86,0,0,0,.26.34,5.91,5.91,0,0,1,1.82,4.32c.18,2.37-1.2,4.94-2.55,6.9a4.33,4.33,0,0,1-1,1.2,2.68,2.68,0,0,1-1.89.43c-.59-.11-1.75-.06-1.76-.66,0-.43.91-1.19,1.16-1.54"/><path class="cls-57" d="M283.69,119.94a.93.93,0,0,0,.15.71.9.9,0,0,0,1,.14,2.57,2.57,0,0,0,1.62-2c.2-1-.35-2.06-1.29-1.79a1.39,1.39,0,0,0-.89,1.35"/><path class="cls-52" d="M276.18,123.1l2.62.49a3.65,3.65,0,0,1-2.65,1"/><g class="cls-61"><polyline class="cls-62" points="71 78.3 74.5 80.06 72.75 75.76"/><path class="cls-62" d="M60.14,72.8a7.41,7.41,0,1,0,7.4-7A7.2,7.2,0,0,0,60.14,72.8Z"/><path class="cls-63" d="M65.73,70.51v5a.52.52,0,0,0,.78.46l4.33-2.5a.53.53,0,0,0,0-.91l-4.33-2.49A.52.52,0,0,0,65.73,70.51Z"/></g><g class="cls-61"><polyline class="cls-62" points="313.2 131.4 309.7 133.16 311.45 128.87"/><path class="cls-62" d="M324.06,125.91a7.41,7.41,0,1,1-7.4-7A7.2,7.2,0,0,1,324.06,125.91Z"/><path class="cls-63" d="M315.34,129.25c1.61,0,3.25.05,4.73-.05.47,0,.87-.73.3-1a1,1,0,0,0,.59-.48.47.47,0,0,0-.28-.63c.56.13.78-.7.34-1a1.24,1.24,0,0,0,.47-.72.7.7,0,0,0-.34-.74,1.24,1.24,0,0,0-.58-.09h-2a4.18,4.18,0,0,0-.3-2.94c-.16-.27-.59-.58-.93-.38s-.24.66-.22,1a3.31,3.31,0,0,1-1.83,3.05S315.36,127.91,315.34,129.25Z"/><rect class="cls-63" x="312.32" y="125.29" width="2.44" height="3.96"/></g><g class="cls-61"><polyline class="cls-62" points="201.2 70.79 203.76 68.03 200.26 68.72"/><path class="cls-62" d="M191.74,71.43a5.37,5.37,0,1,0,5.37-5.06A5.22,5.22,0,0,0,191.74,71.43Z"/><path class="cls-63" d="M196.08,73.86c1,0,2.12,0,3.09,0,.31,0,.58-.53.2-.69a.74.74,0,0,0,.39-.35.35.35,0,0,0-.19-.46c.37.1.51-.51.23-.71a.94.94,0,0,0,.31-.51.53.53,0,0,0-.23-.54.81.81,0,0,0-.38-.07h-1.32a3.29,3.29,0,0,0-.19-2.13c-.11-.19-.39-.42-.61-.27s-.15.48-.14.69A2.47,2.47,0,0,1,196,71S196.09,72.89,196.08,73.86Z"/><rect class="cls-63" x="194.1" y="70.98" width="1.6" height="2.87"/></g><g class="cls-61"><path class="cls-62" d="M226.19,33.77a7.89,7.89,0,1,0-1.8,1.66l3.06,1.63Z"/><path class="cls-13" d="M216.66,26.68a1.93,1.93,0,0,1,2.74,0l.49.5.51-.5a1.93,1.93,0,0,1,2.71,2.75l-1.88,1.86h0a1.94,1.94,0,0,1-2.74,0l-1.85-1.89A1.94,1.94,0,0,1,216.66,26.68Z"/></g></g></g></svg>