<svg id="OBJECTS" xmlns="http://www.w3.org/2000/svg" viewBox="0 0 2740.96 1643.67"><defs><style>.cls-1{fill:#f6f5f5;}.cls-2{fill:#dadada;}.cls-3{fill:#d3dfff;}.cls-4{fill:#fff;}.cls-5{fill:#86a7ff;}.cls-6{fill:#adc3ff;}.cls-7{fill:#e5ecff;}.cls-8{fill:#f9b384;}.cls-18,.cls-9{fill:#102048;}.cls-10{fill:#eb5d60;}.cls-11{fill:#7d69ed;}.cls-12{fill:#e28b6d;}.cls-13{fill:#5b4dad;}.cls-14{fill:#fbc343;}.cls-15{fill:#e49b31;}.cls-16{fill:#1f3c88;}.cls-17{fill:#3a6bea;}.cls-18{opacity:0.3;}.cls-19{fill:#ab4446;}</style></defs><path class="cls-1" d="M2604.39,977.07C2494.12,897.62,2362,859.18,2240.33,801.63c-117-55.34-200.25-144.27-304.93-217.54-171-119.73-368.74-209.51-569.93-264.3C1162,264.39,913.49,233.7,728,356.51c-91.21,60.4-165.44,154.08-195.69,259.87-36,125.88-.77,254.49,16.49,380.29,14,102.23-51.6,158.62-128.92,216.7-181,136-176,382.1-64.15,558.49H2685.88C2824.24,1521.19,2885.09,1179.31,2604.39,977.07Z" transform="translate(-129.52 -178.16)"/><circle class="cls-1" cx="237.88" cy="811.69" r="86.37"/><circle class="cls-1" cx="2282.94" cy="383.06" r="127.66"/><circle class="cls-1" cx="382.93" cy="762.2" r="38.26" transform="translate(-559.26 843.17) rotate(-81.01)"/><circle class="cls-1" cx="2511.38" cy="783.41" r="38.26" transform="translate(-238.15 842.53) rotate(-22.5)"/><path class="cls-2" d="M278.14,1765.92c-110.81-94.54-111.83-260-63.68-381.94,53.61-135.84,179.26-247.66,344.75-306.77q6-2.14,12.07-4.25l1.49,4.3c-4,1.39-8,2.8-12,4.22-164.25,58.68-288.93,169.55-342,304.17-47.56,120.48-46.7,283.73,62.4,376.81Z" transform="translate(-129.52 -178.16)"/><path class="cls-2" d="M2610.37,1771.21l-4-2.07c81.84-159.08,130.31-319.5,140.18-463.92,9.72-142.39-18.52-259.82-81.68-339.62-57.32-72.41-171.38-147.37-389.27-93.24l-1.09-4.41c220.22-54.71,335.77,21.37,393.92,94.83,63.88,80.69,92.46,199.22,82.65,342.75C2741.13,1450.56,2692.49,1611.6,2610.37,1771.21Z" transform="translate(-129.52 -178.16)"/><path class="cls-2" d="M788.55,499.5l-4.4-1.13c.3-1.19,7.78-29.68,32.75-67.35,23-34.7,65.86-83.82,139.28-120.83,84.09-42.38,189.93-60.36,314.58-53.45,156,8.66,342,56.55,552.83,142.36l-1.71,4.21c-210.39-85.61-395.9-133.4-551.37-142-123.87-6.88-228.92,11-312.28,53-72.54,36.55-114.83,85-137.54,119.28C796.13,470.56,788.62,499.22,788.55,499.5Z" transform="translate(-129.52 -178.16)"/><rect class="cls-3" x="580.69" y="324.68" width="1683.21" height="1201.48" rx="28.91"/><rect class="cls-4" x="631.82" y="420.27" width="1580.96" height="958.41"/><path class="cls-5" d="M2344.57,1559.12H759.06v-963H2344.57Zm-1581-4.55H2340V600.7H763.61Z" transform="translate(-129.52 -178.16)"/><rect class="cls-4" x="631.82" y="360.67" width="1580.96" height="59.6"/><path class="cls-5" d="M2344.57,600.7H759.06V536.56H2344.57Zm-1581-4.54H2340v-55H763.61Z" transform="translate(-129.52 -178.16)"/><path class="cls-5" d="M835.65,582.4a13.77,13.77,0,1,1,13.77-13.76A13.78,13.78,0,0,1,835.65,582.4Zm0-23a9.23,9.23,0,1,0,9.23,9.23A9.24,9.24,0,0,0,835.65,559.41Z" transform="translate(-129.52 -178.16)"/><path class="cls-5" d="M881.63,582.4a13.77,13.77,0,1,1,13.77-13.76A13.77,13.77,0,0,1,881.63,582.4Zm0-23a9.23,9.23,0,1,0,9.23,9.23A9.24,9.24,0,0,0,881.63,559.41Z" transform="translate(-129.52 -178.16)"/><path class="cls-5" d="M927.61,582.4a13.77,13.77,0,1,1,13.77-13.76A13.77,13.77,0,0,1,927.61,582.4Zm0-23a9.23,9.23,0,1,0,9.23,9.23A9.24,9.24,0,0,0,927.61,559.41Z" transform="translate(-129.52 -178.16)"/><rect class="cls-3" x="497.7" y="1508.12" width="1849.19" height="85.76"/><path class="cls-5" d="M2479,1774.59H624.67v-90.86H2479Zm-1849.2-5.1H2473.86v-80.66H629.77Z" transform="translate(-129.52 -178.16)"/><rect class="cls-4" x="1322.41" y="1419.41" width="199.77" height="47.98" rx="18.47"/><path class="cls-5" d="M1630.71,1647.82H1472.92a23.28,23.28,0,0,1-23.26-23.26v-6a23.29,23.29,0,0,1,23.26-23.26h157.79a23.3,23.3,0,0,1,23.27,23.26v6A23.29,23.29,0,0,1,1630.71,1647.82Zm-157.79-48a18.74,18.74,0,0,0-18.72,18.71v6a18.74,18.74,0,0,0,18.72,18.72h157.79a18.74,18.74,0,0,0,18.72-18.72v-6a18.74,18.74,0,0,0-18.72-18.71Z" transform="translate(-129.52 -178.16)"/><path class="cls-5" d="M2118.18,1021H985.45a74.33,74.33,0,0,1-74.24-74.24v-5a74.33,74.33,0,0,1,74.24-74.24H2118.18a74.32,74.32,0,0,1,74.23,74.24v5A74.32,74.32,0,0,1,2118.18,1021ZM985.45,872.1a69.77,69.77,0,0,0-69.69,69.69v5a69.77,69.77,0,0,0,69.69,69.69H2118.18a69.77,69.77,0,0,0,69.69-69.69v-5a69.77,69.77,0,0,0-69.69-69.69Z" transform="translate(-129.52 -178.16)"/><rect class="cls-3" x="830.58" y="738.37" width="182.67" height="55.47" rx="22.85"/><rect class="cls-3" x="1069.44" y="738.37" width="166.04" height="55.47" rx="23.15"/><rect class="cls-3" x="1281.76" y="738.37" width="210.14" height="55.47" rx="24.41"/><rect class="cls-3" x="1557.41" y="738.07" width="288.54" height="55.47" rx="24.41"/><rect class="cls-5" x="1231.39" y="574.19" width="381.82" height="39.98"/><rect class="cls-6" x="1294.41" y="1086.21" width="67.65" height="129.54"/><rect class="cls-3" x="1433.95" y="1009.15" width="67.65" height="206.6"/><rect class="cls-6" x="1573.48" y="963.78" width="67.65" height="251.97"/><rect class="cls-3" x="1713.02" y="1073.42" width="67.65" height="142.33"/><rect class="cls-6" x="1852.56" y="991.2" width="67.65" height="224.55"/><rect class="cls-3" x="1992.09" y="905.9" width="67.65" height="309.85"/><rect class="cls-7" x="763.83" y="898.03" width="381.82" height="24.38"/><rect class="cls-7" x="763.83" y="966.47" width="381.82" height="249.28"/><path class="cls-5" d="M1101.55,1237.3c-14.38-5.68-29.16-1.22-39.72,9.1-9.61,9.4-11,22.68-15.49,34.55,9.35,2.55,17.76,8.09,28,6.5,13.24-2.07,13.59-14.42,21.09-22.83,6.43-7.21,14.13-11.86,23.33-13.1C1114.76,1245.71,1109.94,1240.61,1101.55,1237.3Z" transform="translate(-129.52 -178.16)"/><path class="cls-5" d="M1209.69,1224.37c-13,2.83-26.7,7.46-36,17-8,8.16-7.7,22.37-13.5,31,6.55,4.36,13.92,6.4,21.11,2.52,7-3.8,11.29-12.35,18.87-16.08,6.1-3,14.85-4.89,21.48-6.07,1.52-.28,3.08-.45,4.63-.66v-30.3A164.83,164.83,0,0,0,1209.69,1224.37Z" transform="translate(-129.52 -178.16)"/><path class="cls-6" d="M1221.66,1252.64c-6.63,1.18-15.38,3.08-21.48,6.07-7.58,3.73-11.84,12.28-18.87,16.08-7.19,3.88-14.56,1.84-21.11-2.52a50.09,50.09,0,0,1-7.3-6c-9-8.83-11.76-13.82-25.93-15a38.85,38.85,0,0,0-8.26.24c-9.2,1.24-16.9,5.89-23.33,13.1-7.5,8.41-7.85,20.76-21.09,22.83-10.19,1.59-18.6-4-28-6.5a29,29,0,0,0-11.81-1c-9.86,1.35-16.1,7.27-23,11.76-4.79,3.13-9.88,5.57-16.73,5.27-15.28-.68-35-9.48-52.6-10V1355h284.07V1252C1224.74,1252.19,1223.18,1252.36,1221.66,1252.64Z" transform="translate(-129.52 -178.16)"/><path class="cls-5" d="M1011.55,1291.71a25,25,0,0,1-3.13-3.21c-7-8.73-7.6-19.81-15.38-28-15.15-15.93-35.85-9.63-50.82,3.92v22.5c17.6.57,37.32,9.37,52.6,10C1001.67,1297.28,1006.76,1294.84,1011.55,1291.71Z" transform="translate(-129.52 -178.16)"/><path class="cls-8" d="M601.36,1129.62l-72.59,14.23,16.57-106.75L590,1038c-.29,1.88-.57,3.7-.74,5.58-1.66,14.35-.8,28.75,1,41.62A222.9,222.9,0,0,0,601.36,1129.62Z" transform="translate(-129.52 -178.16)"/><path class="cls-9" d="M590.26,1085.21c-27.9-13.15-38.26-40.77-38.26-40.77l37.24-.85C587.58,1057.94,588.44,1072.34,590.26,1085.21Z" transform="translate(-129.52 -178.16)"/><path class="cls-8" d="M605.61,976.35c2.85,10,19,73.07-10.43,80.18s-59.79-19.92-59.79-19.92l10-60.73,42.7-12.82Z" transform="translate(-129.52 -178.16)"/><path class="cls-10" d="M566.65,1010.69s7.65-50.47,39-34.34c-1.11-.58-2.74-5.62-3.44-6.76a47,47,0,0,0-12.12-13.47c-17.82-13.06-47.87-8.31-62.25,6.71-14.15,14.79-14.58,41.07-7.29,60.18a48.2,48.2,0,0,0,4.46,8.84,37,37,0,0,0,5.71,6.71c1.87,1.79,15.84,12.8,16,4.33C547,1022.25,566.65,1010.69,566.65,1010.69Z" transform="translate(-129.52 -178.16)"/><ellipse class="cls-8" cx="563.77" cy="1010.29" rx="12.46" ry="15.43" transform="translate(-641.77 407.04) rotate(-39.28)"/><ellipse class="cls-8" cx="482.02" cy="834.04" rx="6.63" ry="7.2"/><path class="cls-9" d="M516.42,1541.43l-86.35,37s71.16,181.25,92,192.63,10.44-89.19,24.67-119.56l18-71.17Z" transform="translate(-129.52 -178.16)"/><rect class="cls-4" x="523.49" y="1631.41" width="9.1" height="37.57" transform="translate(-1284.32 1884.35) rotate(-86.02)"/><path class="cls-11" d="M494.59,1528.14l52.19,123.36s203.07-106.28,253.36-203.07l-79.71-104.38Z" transform="translate(-129.52 -178.16)"/><path class="cls-9" d="M766.93,1627.78s94.89,3.79,138.54-71.17l-96.79-14.23Z" transform="translate(-129.52 -178.16)"/><polygon class="cls-8" points="785.84 1462.57 678.79 1500.39 670.15 1469.84 654.47 1414.52 743.7 1372.29 749.97 1385.75 785.84 1462.57"/><polygon class="cls-9" points="921.13 1593.85 803.94 1501.33 785.85 1462.58 678.8 1500.37 705.26 1593.85 921.13 1593.85"/><rect class="cls-4" x="901.77" y="1690.37" width="39.2" height="9.09" transform="translate(-1110.36 1195.39) rotate(-51.88)"/><polygon class="cls-12" points="749.97 1385.75 670.15 1469.84 654.47 1414.52 743.7 1372.29 749.97 1385.75"/><path class="cls-11" d="M905.49,1556.59q-75.69,19.1-138.55,71.19L694.8,1438s-145.54,138.73-232.46,115.78c-82.59-21.82-46.54-158.51-46.54-158.51,113.41-79.41,293.82-186,372.87-101.59a10.2,10.2,0,0,1,1,1c16.19,17.78,34.46,52.91,51.64,91.82C875.63,1464.05,905.49,1556.59,905.49,1556.59Z" transform="translate(-129.52 -178.16)"/><path class="cls-13" d="M841.35,1386.54c-78.64,18.5-159.55-68.86-159.55-68.86L763.08,1291l25.59,2.68a10.2,10.2,0,0,1,1,1C805.9,1312.5,824.17,1347.63,841.35,1386.54Z" transform="translate(-129.52 -178.16)"/><path class="cls-13" d="M764.82,1628.58,693.9,1442c-15.37,14.61-99,91.17-187.28,114.43l-1.16-4.4c96-25.31,186.84-114.77,187.74-115.67l2.49-2.47,73.38,193Z" transform="translate(-129.52 -178.16)"/><path class="cls-14" d="M532.76,1090l-31.87,103L458,1331.54s-31.28,11.23-58.87,7.73c-24.36-3.09-45.86-17.73-40-62C371.93,1179.81,532.76,1090,532.76,1090Z" transform="translate(-129.52 -178.16)"/><path class="cls-15" d="M500.89,1193,458,1331.54s-31.28,11.23-58.87,7.73c23.14-142.23,99.69-202.82,99.69-202.82Z" transform="translate(-129.52 -178.16)"/><polygon class="cls-14" points="714.97 1013.78 691.24 1104.15 611.15 1028.6 642.92 975.33 685.88 998.24 714.97 1013.78"/><polygon class="cls-8" points="643.1 975.42 673.5 926.84 734.91 900.67 714.79 1013.97 643.1 975.42"/><path class="cls-16" d="M1071,1060.63c-16.13-3.86-30.68-3.23-43.82,1.59a73.12,73.12,0,0,0-24.22,15l-29.69-68.82a95.2,95.2,0,0,0,28.23-9.41,79.18,79.18,0,0,0,30.59-28.69Z" transform="translate(-129.52 -178.16)"/><polygon class="cls-16" points="873.5 899.04 843.84 830.24 406.85 1037.68 422.64 1074.31 873.5 899.04 843.84 830.24 873.5 899.04"/><path class="cls-9" d="M1071,1060.63c-16.13-3.86-30.68-3.23-43.82,1.59L1001.49,999a79.18,79.18,0,0,0,30.59-28.69Z" transform="translate(-129.52 -178.16)"/><circle class="cls-16" cx="1246.26" cy="931.56" r="233.45" transform="translate(-423.21 975.92) rotate(-45)"/><circle class="cls-4" cx="1246.26" cy="931.56" r="194.49" transform="translate(-423.21 975.92) rotate(-45)"/><path class="cls-5" d="M1069,851.64h354.54c-.76-1.7-1.53-3.41-2.34-5.08H1071.39C1070.57,848.25,1069.74,849.93,1069,851.64Z" transform="translate(-129.52 -178.16)"/><path class="cls-5" d="M1422.93,1012.85H1069.65c.78,1.7,1.53,3.42,2.36,5.08h348.47C1421.31,1016.25,1422.14,1014.56,1422.93,1012.85Z" transform="translate(-129.52 -178.16)"/><path class="cls-3" d="M1101,934.22v-4a29.09,29.09,0,0,0-29-29h-17.84a193.08,193.08,0,0,0,.18,62H1072A29.09,29.09,0,0,0,1101,934.22Z" transform="translate(-129.52 -178.16)"/><rect class="cls-3" x="1034.26" y="723.1" width="185.45" height="61.96" rx="29.39"/><path class="cls-3" d="M1438.42,901.27h-6.53a31,31,0,1,0,0,62h6.24A193.54,193.54,0,0,0,1438.42,901.27Z" transform="translate(-129.52 -178.16)"/><path class="cls-8" d="M844.49,1192,815.4,1176.4l17.72-38.5s24.69-44.59,37-42.68S844.49,1192,844.49,1192Z" transform="translate(-129.52 -178.16)"/><path class="cls-14" d="M740.69,1206.76l-6,10.14c-12-16.51-38.49-51.7-71.8-79.65h0c-30-25.11-70.58-64.17-106.05-58.76-95,14.41-141,316.78-141,316.78l245.73-88.94,55.05,42.88a60.18,60.18,0,0,0,42.15,12.49h0a60.16,60.16,0,0,0,53.07-44.83l9-34.53Z" transform="translate(-129.52 -178.16)"/><rect class="cls-15" x="625.93" y="1232.25" width="4.54" height="89.08" transform="translate(-873.52 721.95) rotate(-48.45)"/><rect class="cls-15" x="745.82" y="1202.42" width="4.54" height="69.58" transform="translate(-706.38 480.4) rotate(-35.25)"/><path class="cls-12" d="M1985.11,619.91s-11.5,36-40.48,52-67.47,33-54.48,38.48,47.73,2,47.73,2-67.22,52-48.23,57.47,65-32,65-32-6.25,14,3.25,17,27.74-.5,27.74-.5-2.5,10,16.49,7.5,68.46-62.47,68.46-62.47l3.5-55Z" transform="translate(-129.52 -178.16)"/><path class="cls-17" d="M1926.63,311.06s75-19.49,187.41,51C2215.23,425.45,2222,488,2174,565.94s-103.45,133.44-103.45,133.44l-85.45-79.47,75-116.94Z" transform="translate(-129.52 -178.16)"/><path class="cls-17" d="M1900.15,323.06s-106,57-159.93,179.91h369.83l-102-161.92Z" transform="translate(-129.52 -178.16)"/><path class="cls-12" d="M1795.82,502.47s36.36,6.37,49.1,0-27.73-24.74-62.59-33.36-75.72-24-109.45,24-30.36,51.35-19.49,50.6,36.73-33,36.73-33-27.73,34.86-14.62,38.6,44.61-43.85,44.61-43.85-27,38.61-13.12,43.1,43.85-42.73,43.85-42.73-30.36,47.61-12,46.48c12-.73,25.65-21.61,33.76-36.12a26.63,26.63,0,0,1,23.21-13.73Z" transform="translate(-129.52 -178.16)"/><path class="cls-9" d="M1926,375.4a59.57,59.57,0,0,1-26-6.3l2.22-4c1.5.83,37.09,20.06,60-15.72l3.83,2.46C1954.19,370.46,1938.89,375.4,1926,375.4Z" transform="translate(-129.52 -178.16)"/><polygon class="cls-9" points="1857.49 442.99 1853.68 440.51 1950.36 291.97 1913.28 234.12 1917.11 231.66 1955.78 291.99 1857.49 442.99"/><path class="cls-12" d="M1947.82,327.79c-6.1,21.74-35.19,26.3-48.59,8.14l-3.58-4.82-23.08-31.27,23.78-30.92,2.28-3,5.41,4,3.92,2.93L1949.51,304C1950.35,313.59,1949.61,321.43,1947.82,327.79Z" transform="translate(-129.52 -178.16)"/><path class="cls-9" d="M1895.65,331.11l-23.08-31.27,23.78-30.92,7.69,1,3.68.5s.09.84.24,2.43C1908.56,280.93,1909.35,307.53,1895.65,331.11Z" transform="translate(-129.52 -178.16)"/><path class="cls-12" d="M1806.81,250.62s51.47,92.45,88.51,53.77c28.13-29.37,8.28-69.9,8.28-69.9L1876.3,208l-60.81,18.19Z" transform="translate(-129.52 -178.16)"/><path class="cls-14" d="M1886.22,255.17s-17.37-27.61-36.29-14.58-41.16,48.08-67.11,27.81c-18.07-14.1-5.8-54.18,18.09-50.77,0,0,26.37-50.56,71.66-37.22s27.92,40.32,52.12,44.36,102.56,9.66,89.53,92.49c0,0-33.53-8.95-61.51-5.83-35,3.91-58.63-53.78-58.63-53.78C1891.81,258.27,1886.22,255.17,1886.22,255.17Z" transform="translate(-129.52 -178.16)"/><ellipse class="cls-12" cx="1761.05" cy="74.83" rx="13.65" ry="17.68"/><rect class="cls-9" y="1590.29" width="2740.96" height="6.82"/><rect class="cls-16" x="2104.59" y="1344.66" width="187.5" height="109.09"/><polygon class="cls-9" points="2313.91 1593.49 2413.82 1643.67 2379.84 1513.73 2335.89 1505.29 2289.88 1521.73 2313.91 1593.49"/><path class="cls-17" d="M2465.43,1683.46l-22,88.18s-94.87-12.5-187.82-33.13c-42.87-9.46-85.32-20.69-117.87-33.23-17.14-6.59-31.54-13.55-41.82-20.78-72.23-50.91-46.45-168.13,76-148.09,47.45,7.77,98.64,28.91,144.82,52.87,21.05,10.86,41,22.36,59.09,33.41C2428.7,1654.87,2465.43,1683.46,2465.43,1683.46Z" transform="translate(-129.52 -178.16)"/><path class="cls-18" d="M2375.88,1622.69l-120.27,115.82c-42.87-9.46-85.32-20.69-117.87-33.23l179.05-116C2337.84,1600.14,2357.79,1611.64,2375.88,1622.69Z" transform="translate(-129.52 -178.16)"/><polygon class="cls-9" points="1999.02 1521.23 1878.08 1591.45 2056.06 1590.71 2067.49 1523.23 1999.02 1521.23"/><polygon class="cls-8" points="2104.97 1505.74 2067.49 1523.23 2056.06 1590.71 2058.49 1590.7 2132.95 1591.7 2158.94 1559.21 2104.97 1505.74"/><path class="cls-17" d="M2234.49,1683.9S2376.42,1545,2499.36,1512c114-30.58,147.93,84,84,140.94s-320.85,116.94-320.85,116.94Z" transform="translate(-129.52 -178.16)"/><path class="cls-9" d="M2263,1772.06l-1.11-4.4c88.15-22.26,178.72-46.43,244.08-72.33l1.68,4.23C2442.08,1725.55,2351.33,1749.76,2263,1772.06Z" transform="translate(-129.52 -178.16)"/><path class="cls-9" d="M2320.25,1137.39c-12.77,1-24.81,4.19-35.44,11.75a60.21,60.21,0,0,0-20,25c-6.77,15.42-5.2,32.65-10.39,48.46-5,15.22-17.25,23.07-28.65,33.24-11,9.79-18.88,26-15,40.87a30.68,30.68,0,0,0,5.76,11.28c2,2.55,8.26,9.9,11.76,9.92l193,.85s35.87-33.6-5.41-72.89c-11.46-10.9-24.3-22.11-30.12-37.43-3.6-9.46-5.41-19.44-8.12-29.15-3.46-12.38-11.08-25-21.36-32.89S2333,1136.35,2320.25,1137.39Z" transform="translate(-129.52 -178.16)"/><path class="cls-9" d="M2304,1149.07s-32.17-24.49-.29-35.59c24.39-8.5,47.27,1.14,32.75,32.74Z" transform="translate(-129.52 -178.16)"/><path class="cls-10" d="M2312.45,1271.85s-181.41,30.74-217.4,155.93,183,133.3,183,133.3,215.06-7.37,253.29-41.85,57.72-209.15-197.9-245.88Z" transform="translate(-129.52 -178.16)"/><path class="cls-19" d="M2324.14,1340.32c-1.17,0-2.35,0-3.51-.14-13-1.06-23.37-7.8-29.07-19l4-2.07c5,9.72,14,15.59,25.39,16.51,14,1.18,29-5.31,36.67-15.68l3.66,2.69C2353.45,1333.35,2338.56,1340.32,2324.14,1340.32Z" transform="translate(-129.52 -178.16)"/><rect class="cls-19" x="2203.14" y="1395.62" width="4.55" height="122.01" transform="translate(-443.35 2077.84) rotate(-51.05)"/><rect class="cls-19" x="2385.91" y="1455.3" width="114.4" height="4.54" transform="translate(-487.55 1776.33) rotate(-40.88)"/><rect class="cls-4" x="2087.02" y="1236.62" width="211.81" height="154.67" rx="11.49"/><path class="cls-8" d="M2302.49,1233.08l-4.93,47a27,27,0,0,0,9.48,23.57h0a25.25,25.25,0,0,0,32.18.21l.43-.35a27,27,0,0,0,9.65-24.46l-6.1-46.77Z" transform="translate(-129.52 -178.16)"/><path class="cls-9" d="M2301.6,1242.74c14.38,28.19,30.61,28.76,43,.71l-25.48-3.27Z" transform="translate(-129.52 -178.16)"/><ellipse class="cls-8" cx="2193.95" cy="1029.84" rx="34.38" ry="44.99"/><path class="cls-9" d="M2363.53,1200.6s-34.46-.57-45.84-28.47c0,0-18.51,6.55-23.35,30.46l-13.1,4.56-.28-37.58,29-18.51,25.91.57,22.78,19.08Z" transform="translate(-129.52 -178.16)"/><path class="cls-8" d="M2299.16,1204.38c3.84,7.4,1.86,16-4.42,19.3s-14.49-.1-18.32-7.5-1.86-16,4.42-19.29S2295.33,1197,2299.16,1204.38Z" transform="translate(-129.52 -178.16)"/><path class="cls-8" d="M2349,1204.38c-3.84,7.4-1.85,16,4.43,19.3s14.48-.1,18.32-7.5,1.85-16-4.43-19.29S2352.86,1197,2349,1204.38Z" transform="translate(-129.52 -178.16)"/></svg>